<?xml version="1.0" encoding="UTF-8"?>
<svg width="18px" height="18px" viewBox="0 0 18 18" version="1.1" xmlns="http://www.w3.org/2000/svg" xmlns:xlink="http://www.w3.org/1999/xlink">
    <!-- Generator: Sketch 51.3 (57544) - http://www.bohemiancoding.com/sketch -->
    <title>facebook-icon</title>
    <desc>Created with Sketch.</desc>
    <defs></defs>
    <g id="Artist-Onboarding" stroke="none" stroke-width="1" fill="none" fill-rule="evenodd">
        <g id="Footer-sm---600px-or-larger" transform="translate(-32.000000, -83.000000)" fill-rule="nonzero">
            <g id="Group" transform="translate(32.000000, 83.000000)">
                <g id="facebook-icon">
                    <path d="M9.00001786,3.17306681e-17 C6.55576616,3.17306681e-17 6.24917187,0.0103604113 5.28937669,0.0541599433 C4.33140351,0.0978880242 3.67720231,0.250007443 3.10474055,0.472506207 C2.5042201,0.698492901 1.96022146,1.05275319 1.51067888,1.5105837 C1.05274883,1.96010166 0.698392438,2.50410674 0.47232383,3.10465802 C0.250005458,3.67716006 0.0978872471,4.33136644 0.0543381397,5.28934723 C0.0103603291,6.24915003 0,6.55574675 0,9.00001786 C0,11.444289 0.0103603291,11.7508857 0.0543381397,12.7106885 C0.0980658734,13.6686693 0.250184084,14.3228757 0.472681082,14.895342 C0.698667012,15.4958667 1.05292435,16.0398694 1.51075033,16.4894163 C1.96029145,16.9472486 2.50429051,17.3015092 3.104812,17.5274938 C3.67730949,17.7499926 4.33151068,17.902112 5.28944814,17.9458401 C6.24938622,17.9896396 6.55587333,18 9.00008931,18 C11.4443053,18 11.7509353,17.9896396 12.7107305,17.9458401 C13.6687037,17.902112 14.3229049,17.7499926 14.8953666,17.5274938 C16.1042649,17.0599344 17.0599419,16.1042499 17.5274975,14.895342 C17.7499945,14.3228399 17.9021128,13.6686336 17.9458405,12.7106885 C17.9896397,11.7507428 18,11.4442532 18,9.00001786 C18,6.55578248 17.9896397,6.24915003 17.9458405,5.28934723 C17.9021128,4.33136644 17.7499945,3.67716006 17.5274975,3.10469374 C17.3015147,2.50416749 16.947257,1.96016411 16.4894283,1.51061942 C16.0398765,1.05269764 15.4958383,0.698362228 14.8952595,0.47232758 C14.322762,0.250007443 13.6685608,0.0978880242 12.7105876,0.0543385711 C11.7507924,0.0103604113 11.4441981,0 8.99994641,0 L9.00001786,3.17306681e-17 Z" id="insta" fill="#3B5998"></path>
                    <path d="M9.89454507,14.5384615 L9.89454507,9.2752102 L11.6635159,9.2752102 L11.9283941,7.22402776 L9.89454507,7.22402776 L9.89454507,5.91447737 C9.89454507,5.32061273 10.0596715,4.91591356 10.9123937,4.91591356 L12,4.91543893 L12,3.08084491 C11.8119026,3.05584785 11.1662882,3 10.4151661,3 C8.84707187,3 7.77351217,3.95590006 7.77351217,5.71133674 L7.77351217,7.22402776 L6,7.22402776 L6,9.2752102 L7.77351217,9.2752102 L7.77351217,14.5384615 L9.89454507,14.5384615 Z" id="f" fill="#FFFFFF"></path>
                </g>
            </g>
        </g>
    </g>
</svg>