<?xml version="1.0" encoding="UTF-8"?>
<svg width="19px" height="19px" viewBox="0 0 19 19" version="1.1" xmlns="http://www.w3.org/2000/svg" xmlns:xlink="http://www.w3.org/1999/xlink">
    <!-- Generator: Sketch 51.3 (57544) - http://www.bohemiancoding.com/sketch -->
    <title>instagram-icon</title>
    <desc>Created with Sketch.</desc>
    <defs>
        <path d="M9.2804806,3.2719474e-17 L9.28040693,0 C11.8008275,0 12.1169761,0.0106832673 13.1066808,0.0560318949 C14.0945068,0.100938456 14.7690945,0.257798291 15.3594325,0.487046471 C15.9787268,0.720124916 16.5397186,1.08550229 17.0032795,1.55769405 C17.4753753,2.02124766 17.8406725,2.58220352 18.0736976,3.20144365 C18.3031281,3.79174943 18.4599867,4.4663425 18.5050771,5.45417633 C18.5502412,6.44388895 18.5609244,6.76007682 18.5609244,9.2804806 C18.5609244,11.8008844 18.5502412,12.1169249 18.5050771,13.1067849 C18.4599867,14.0945819 18.3031281,14.7691749 18.0736976,15.3595176 C17.5915718,16.606098 16.6061135,17.5915641 15.359543,18.0736937 C14.7692419,18.3031261 14.0946542,18.4599859 13.1068282,18.5050767 C12.1171234,18.5502411 11.8009381,18.5609244 9.28055428,18.5609244 C6.76017051,18.5609244 6.4441325,18.5502411 5.45428039,18.5050767 C4.46649123,18.4599859 3.79190352,18.3031261 3.20156559,18.0736937 C2.58233037,17.8406668 2.02137896,17.4753666 1.55782903,17.0032672 C1.08573607,16.5397113 0.720439198,15.9787561 0.48741099,15.3595176 C0.257980437,14.7692118 0.101121848,14.0946187 0.0560314501,13.1067849 C0.0106831825,12.1170723 0,11.8009212 0,9.2804806 C0,6.76003998 0.0106831825,6.44388895 0.0560314501,5.45417633 C0.100937655,4.4663425 0.257796244,3.79174943 0.487042605,3.20140681 C0.720156067,2.58214088 1.08555508,2.02118326 1.55775536,1.55765721 C2.02130679,1.08555957 2.58225777,0.720259662 3.20149191,0.487230665 C3.791793,0.257798291 4.46638072,0.100938456 5.45420671,0.0558477007 C6.44391147,0.0106832673 6.76005999,3.2719474e-17 9.2804806,3.2719474e-17 Z M9.28040693,1.6721892 L9.2804806,1.67215236 C6.80242434,1.67215236 6.50893153,1.68161995 5.53031517,1.72626864 C4.62548646,1.76752815 4.1340969,1.9187148 3.80708101,2.04580884 C3.4039907,2.19458441 3.03936688,2.43180703 2.74001527,2.74003702 C2.43175552,3.03939335 2.19450879,3.40403392 2.04571893,3.80714807 C1.91862589,4.1342034 1.76747728,4.62556002 1.72618125,5.53039592 C1.68153292,6.50909372 1.67206541,6.80251518 1.67206541,9.28059112 C1.67206541,11.7586671 1.68153292,12.052199 1.72618125,13.0307863 C1.76744044,13.9356222 1.91862589,14.4270157 2.04571893,14.7540342 C2.19449331,15.1571277 2.43171405,15.5217544 2.73994159,15.8211084 C3.03929161,16.1293403 3.4039159,16.3665632 3.80700733,16.5153366 C4.13406007,16.6423938 4.62541278,16.7935804 5.5302415,16.8348768 C6.50878417,16.8795255 6.80216647,16.888993 9.28040693,16.888993 C11.7586474,16.888993 12.0521402,16.8795255 13.0305724,16.8348768 C13.9354011,16.7936173 14.4267906,16.6424306 14.7538065,16.5153366 C15.5631651,16.2031229 16.2028837,15.5633992 16.5150949,14.7540342 C16.6421511,14.4269788 16.7933366,13.9356222 16.8346326,13.0307863 C16.8792809,12.0520885 16.8887484,11.7586671 16.8887484,9.28059112 C16.8887484,6.80251518 16.8792809,6.50902004 16.8346326,5.53039592 C16.7933734,4.62556002 16.642188,4.13416656 16.5150949,3.80714807 C16.3663217,3.404054 16.1291008,3.03942705 15.8208723,2.74007386 C15.5215214,2.4318429 15.1568974,2.19462012 14.7538065,2.04584568 C14.4267538,1.91875164 13.9354011,1.76760183 13.0305724,1.72630548 C12.0518823,1.68165679 11.7583895,1.6721892 9.28040693,1.6721892 Z M9.28040693,4.51482243 C11.9123864,4.51482243 14.0460273,6.64848027 14.0460273,9.2804806 C14.0460273,11.9124809 11.9123864,14.0461388 9.28040693,14.0461388 C6.64842749,14.0461388 4.51478659,11.9124809 4.51478659,9.2804806 C4.51478659,6.64848027 6.64842749,4.51482243 9.28040693,4.51482243 Z M9.28040693,12.3739496 C10.9888751,12.3739496 12.3738678,10.9889623 12.3738882,9.2804806 C12.3738882,7.57200966 10.9889134,6.18701841 9.28045604,6.18701163 C7.57199866,6.18700485 6.18701291,7.5719851 6.18699935,9.28045605 C6.18698579,10.988927 7.57194955,12.3739292 9.28040693,12.3739496 Z M14.2343092,5.44017757 C13.6192685,5.44017757 13.1206795,4.94158462 13.1206795,4.32653905 C13.1206795,3.71149348 13.6192685,3.21290054 14.2343092,3.21290054 C14.8493498,3.21290054 15.3479388,3.71149348 15.3479388,4.32653905 C15.3479388,4.94158462 14.8493498,5.44017757 14.2343092,5.44017757 Z" id="path-1"></path>
        <linearGradient x1="11.214774%" y1="11.8809291%" x2="87.6970564%" y2="87.3831613%" id="linearGradient-3">
            <stop stop-color="#8822C0" offset="0%"></stop>
            <stop stop-color="#DC1254" offset="100%"></stop>
        </linearGradient>
        <radialGradient cx="18.8912528%" cy="86.6891044%" fx="18.8912528%" fy="86.6891044%" r="101.196693%" id="radialGradient-4">
            <stop stop-color="#FCAB48" offset="0%"></stop>
            <stop stop-color="#FCA745" stop-opacity="0" offset="100%"></stop>
        </radialGradient>
        <rect id="path-5" x="0" y="0" width="19" height="19"></rect>
    </defs>
    <g id="Artist-Onboarding" stroke="none" stroke-width="1" fill="none" fill-rule="evenodd">
        <g id="Footer-sm---600px-or-larger" transform="translate(-66.000000, -83.000000)">
            <g id="Group" transform="translate(32.000000, 83.000000)">
                <g id="instagram-icon" transform="translate(34.000000, 0.000000)">
                    <mask id="mask-2" fill="white">
                        <use xlink:href="#path-1"></use>
                    </mask>
                    <use id="insta" fill="#00B9D1" fill-rule="nonzero" xlink:href="#path-1"></use>
                    <g id="Rectangle-25" mask="url(#mask-2)">
                        <use fill="url(#linearGradient-3)" xlink:href="#path-5"></use>
                        <use fill="url(#radialGradient-4)" xlink:href="#path-5"></use>
                    </g>
                </g>
            </g>
        </g>
    </g>
</svg>