<?xml version="1.0" encoding="utf-8"?>
<!-- Generator: Adobe Illustrator 21.1.0, SVG Export Plug-In . SVG Version: 6.00 Build 0)  -->
<svg version="1.1" id="Layer_2" xmlns="http://www.w3.org/2000/svg" xmlns:xlink="http://www.w3.org/1999/xlink" x="0px" y="0px"
	 viewBox="0 0 246.3 105.3" style="enable-background:new 0 0 246.3 105.3;" xml:space="preserve">
<style type="text/css">
	.st0{fill:#27434C;}
</style>
<g>
	<path class="st0" d="M38.8,0.5c21.5,0,38.6,18.3,38.8,41c-0.2,22.8-17.4,41.1-38.8,41.1S0.2,64.3,0.1,41.5
		C0.2,18.8,17.4,0.5,38.8,0.5z M38.8,79.5c19.4-0.2,35.5-17,35.7-38c-0.1-21.1-16.2-38-35.7-38c-19.5,0-35.7,16.9-35.7,38
		C3.2,62.5,19.3,79.3,38.8,79.5z"/>
	<path class="st0" d="M86.3,54.1V53v-1.1V27c0-0.9,0.6-1.5,1.5-1.5c0.8,0,1.4,0.6,1.4,1.5v13.7c4.3-9.1,13.4-15.2,23.7-15.2
		c15,0,26.8,12.3,26.8,27.5c0,15.2-11.8,27.6-26.8,27.6c-10.3,0-19.4-6.2-23.7-15.1v38.5c0,0.9-0.6,1.5-1.4,1.5
		c-0.9,0-1.5-0.6-1.5-1.5V54.1z M89.1,53c0,13.6,10.8,24.6,23.7,24.6c13.1,0,23.8-11,23.8-24.6c0-13.5-10.8-24.6-23.8-24.6
		c-12.6,0-23.3,10.6-23.7,23.6V53z"/>
	<path class="st0" d="M146.4,27c0-0.8,0.6-1.5,1.5-1.5c0.7,0,1.4,0.7,1.4,1.5v31.7c0,10.9,8.7,19.6,19.4,19.6
		c10.8,0,19.5-8.7,19.5-19.6V27c0-0.8,0.8-1.5,1.5-1.5c0.8,0,1.5,0.7,1.5,1.5v31.7c0,12.5-10.1,22.5-22.5,22.5
		c-12.3,0-22.3-10-22.3-22.5V27z"/>
	<path class="st0" d="M197.3,73.1c-0.6-0.6-0.7-1.5-0.1-2c0.6-0.6,1.5-0.7,2-0.1c0.1,0.1,8.3,7.4,19,7.4c10.1,0,18.4-5.9,18.4-13.2
		c0-8.5-8.3-10.3-17-12.4c-8.9-2.2-19-4.4-19-14.9c0-7.5,7.9-13.5,17.6-13.5c11.1,0,16.9,6.5,17.1,6.8c0.6,0.6,0.5,1.5-0.1,2
		c-0.7,0.6-1.6,0.5-2-0.1c-0.1-0.1-5.2-5.8-15-5.8c-8.1,0-14.6,4.7-14.6,10.6c0,8.1,7.7,9.9,16.7,12c9.1,2,19.3,4.4,19.3,15.2
		c0,9-9.4,16-21.3,16C206.4,81.1,197.6,73.4,197.3,73.1z"/>
	<path class="st0" d="M243.4,75.7c1.5,0,2.7,1.2,2.7,2.7s-1.2,2.7-2.7,2.7c-1.5,0-2.7-1.2-2.7-2.7S241.9,75.7,243.4,75.7z"/>
</g>
</svg>
