<svg xmlns="http://www.w3.org/2000/svg" xmlns:xlink="http://www.w3.org/1999/xlink" width="24" height="24" viewBox="0 0 24 24">
    <defs>
        <path id="a" d="M20 9V6a1 1 0 0 0-1-1h-2v1a1 1 0 0 1-2 0V5H9v1a1 1 0 1 1-2 0V5H5a1 1 0 0 0-1 1v3h16zm0 2H4v9a1 1 0 0 0 1 1h14a1 1 0 0 0 1-1v-9zM9 3h6V2a1 1 0 0 1 2 0v1h2a3 3 0 0 1 3 3v14a3 3 0 0 1-3 3H5a3 3 0 0 1-3-3V6a3 3 0 0 1 3-3h2V2a1 1 0 1 1 2 0v1z"/>
    </defs>
    <g fill="none" fill-rule="evenodd">
        <mask id="b" fill="#fff">
            <use xlink:href="#a"/>
        </mask>
        <use fill="#000" fill-rule="nonzero" xlink:href="#a"/>
        <g fill="#333" mask="url(#b)">
            <path d="M0 0h24v24H0z"/>
        </g>
    </g>
</svg>
