<svg id="Layer_1" xmlns="http://www.w3.org/2000/svg" viewBox="0 0 14 20"><style>.st0{fill:#333}</style><path class="st0" d="M9.7 19.1v-6.4h2.2c.5 0 .9-.3 1-.7L14 8.4c.2-.6-.3-1.1-1-1.1H9.7V5.5h3.2c.6 0 1.1-.5 1.1-1V.9c0-.5-.5-.9-1.1-.9H9.7C6.1 0 3.2 2.4 3.2 5.5v1.8H1.1c-.6 0-1.1.4-1.1.9v3.6c0 .5.5.9 1.1.9h2.2v6.4c0 .5.5.9 1.1.9h4.3c.5 0 1-.4 1-.9zm-2.2-7.3v6.4H5.4v-6.4c0-.5-.5-.9-1.1-.9H2.2V9.1h2.2c.6 0 1.1-.4 1.1-.9V5.5c0-2 1.9-3.6 4.3-3.6H12v1.8H9.7c-1.2 0-2.2.8-2.2 1.8v2.7c0 .5.5.9 1.1.9h2.9l-.5 1.8H8.6c-.6 0-1.1.4-1.1.9z"/></svg>