<svg xmlns="http://www.w3.org/2000/svg" xmlns:xlink="http://www.w3.org/1999/xlink" width="20" height="16" viewBox="0 0 20 16"><defs><path id="a" d="M15 25.14c0-.63.6-1.14 1.33-1.14h17.34c.73 0 1.33.51 1.33 1.14 0 .63-.6 1.15-1.33 1.15H16.33c-.73 0-1.33-.52-1.33-1.15zM15 32c0-.63.6-1.14 1.33-1.14h17.34c.73 0 1.33.5 1.33 1.14 0 .62-.6 1.13-1.33 1.13H16.33c-.73 0-1.33-.5-1.33-1.13zm0 6.86c0-.63.6-1.15 1.33-1.15h17.34c.73 0 1.33.52 1.33 1.15 0 .63-.6 1.14-1.33 1.14H16.33c-.73 0-1.33-.51-1.33-1.14z"/><path id="c" d="M15 42V22h20v20z"/><clipPath id="b"><use xlink:href="#a"/></clipPath></defs><use xlink:href="#a" transform="translate(-15 -24)"/><g clip-path="url(#b)" transform="translate(-15 -24)"><use fill="#333" xlink:href="#c"/></g></svg>