<svg xmlns="http://www.w3.org/2000/svg" xmlns:xlink="http://www.w3.org/1999/xlink" width="30" height="30" viewBox="0 0 30 30"><defs><path id="a" d="M128.12 978l-5.56 5.56a1.5 1.5 0 0 1-2.56-1.06v-24a4.5 4.5 0 0 1 4.5-4.5h21a4.5 4.5 0 0 1 4.5 4.5v15a4.5 4.5 0 0 1-4.5 4.5zm-1.68-2.56a1.5 1.5 0 0 1 1.06-.44h18c.83 0 1.5-.67 1.5-1.5v-15c0-.83-.67-1.5-1.5-1.5h-21c-.83 0-1.5.67-1.5 1.5v20.38z"/><path id="c" d="M120 984v-30h30v30z"/><clipPath id="b"><use xlink:href="#a"/></clipPath></defs><use xlink:href="#a" transform="translate(-120 -954)"/><g clip-path="url(#b)" transform="translate(-120 -954)"><use fill="#333" xlink:href="#c"/></g></svg>