<svg id="Layer_1" xmlns="http://www.w3.org/2000/svg" viewBox="0 0 20 20"><style>.st0{fill:#333}</style><path class="st0" d="M10.7 5.5c-1.9-.3-3.8.7-4.7 2.4-.9 1.8-.5 3.9.8 5.3s3.5 1.7 5.3.8c1.8-.9 2.7-2.8 2.5-4.7-.4-2-1.9-3.5-3.9-3.8zm.6 6.9c-1.1.5-2.3.3-3.2-.5s-1-2.1-.5-3.2 1.7-1.6 2.8-1.5c1.2.2 2.1 1.1 2.3 2.3.2 1.2-.4 2.4-1.4 2.9z"/><path class="st0" d="M14.5 0h-9C2.4 0 0 2.4 0 5.5v9.1c0 3 2.4 5.5 5.5 5.5h9.1c3 0 5.5-2.4 5.5-5.5V5.5C20 2.4 17.6 0 14.5 0zm3.7 14.5c0 2-1.6 3.6-3.6 3.6H5.5c-2 0-3.6-1.6-3.6-3.6v-9c0-2 1.6-3.6 3.6-3.6h9.1c2 0 3.6 1.6 3.6 3.6v9z"/></svg>