<svg xmlns="http://www.w3.org/2000/svg" width="98" height="50" viewBox="0 0 98 50">
  <g id="logo" fill="none" fill-rule="evenodd">
    <path id="opus" fill="#000" d="M22.814 32.976c-4.847 0-8.314-3.737-8.314-8.504 0-4.735 3.531-8.472 8.314-8.472 4.815 0 8.346 3.737 8.346 8.472 0 4.767-3.53 8.504-8.346 8.504zm0-3.575c2.568 0 4.494-2.062 4.494-4.929 0-2.835-1.926-4.896-4.494-4.896-2.6 0-4.462 2.061-4.462 4.896 0 2.867 1.862 4.929 4.462 4.929zM42.75 16c4.462 0 7.769 3.801 7.769 8.504 0 4.703-3.146 8.472-7.736 8.472-2.44 0-4.11-1.127-4.976-2.255V39h-3.852V16.451h3.178l.513 1.965C38.45 17.321 40.086 16 42.75 16zm-.545 3.479c-2.568 0-4.398 2.094-4.398 5.025 0 2.932 1.83 4.993 4.398 4.993 2.568 0 4.462-2.094 4.462-4.993 0-2.931-1.894-5.025-4.462-5.025zM67.849 16v16.074H64.67l-.546-1.933c-.995 1.321-2.504 2.384-4.879 2.384-3.66 0-5.746-2.126-5.746-6.829V16h3.852v9.18c0 2.868 1.316 3.737 3.114 3.737 1.958 0 3.53-1.385 3.53-4.123V16h3.853zm9.167 16.976c-3.5 0-5.875-1.804-6.677-4.8l3.402-1.095c.386 1.418 1.22 2.674 3.275 2.674 1.733 0 2.857-.677 2.857-1.836 0-.806-.514-1.482-2.954-1.9-3.338-.613-6.13-1.644-6.13-4.994 0-2.77 2.343-5.025 6.227-5.025 3.21 0 5.425 1.707 6.099 4.606l-3.37.967c-.29-1.16-.964-2.352-2.73-2.352-1.829 0-2.632.806-2.632 1.643 0 1.095 1.156 1.482 3.21 1.868 3.564.645 5.907 1.901 5.907 5.122 0 2.867-2.536 5.122-6.484 5.122z"/>
  </g>
</svg>
