<?xml version="1.0" encoding="UTF-8"?>
<svg width="94px" height="40px" viewBox="0 0 94 40" version="1.1" xmlns="http://www.w3.org/2000/svg" xmlns:xlink="http://www.w3.org/1999/xlink">
    <!-- Generator: Sketch 51.2 (57519) - http://www.bohemiancoding.com/sketch -->
    <title>Logo Copy</title>
    <desc>Created with Sketch.</desc>
    <defs></defs>
    <g id="Logo-Copy" stroke="none" stroke-width="1" fill="none" fill-rule="evenodd">
        <path d="M-4.68913797e-12,15.8605838 C0.0279073392,11.7302976 1.40929991,8.22100235 4.14421915,5.33259275 C6.87913839,2.44418314 10.2070387,1 14.1280198,1 C18.049001,1 21.3629478,2.44418314 24.0699597,5.33259275 C26.7769716,8.22100235 28.1444107,11.7302976 28.172318,15.8605838 C28.1444107,19.99087 26.7769716,23.5001653 24.0699597,26.3885749 C21.3629478,29.2769845 18.049001,30.7211676 14.1280198,30.7211676 C10.2070387,30.7211676 6.87913839,29.2769845 4.14421915,26.3885749 C1.40929991,23.5001653 0.0279073392,19.99087 -4.68913797e-12,15.8605838 Z M14.0652286,3.09303997 C10.7721626,3.09303997 7.94658689,4.32094448 5.58841673,6.77679033 C3.23024657,9.23263618 2.05117917,12.2535603 2.05117917,15.8396534 C2.05117917,19.4257465 3.23024657,22.4606241 5.58841673,24.9443773 C7.94658689,27.4281305 10.7721626,28.6699885 14.0652286,28.6699885 C17.3582946,28.6699885 20.1768936,27.4211538 22.5211101,24.9234469 C24.8653266,22.42574 26.0513707,19.4048159 26.0792781,15.8605838 C26.0513707,12.2605371 24.8723033,9.23263618 22.5420405,6.77679033 C20.2117777,4.32094448 17.386202,3.09303997 14.0652286,3.09303997 Z M32.681325,38.2979723 L32.681325,11.2140351 C32.681325,10.9349617 32.7789993,10.6977529 32.9743506,10.5024015 C33.169702,10.3070501 33.4069108,10.2093759 33.6859842,10.2093759 C33.9650576,10.2093759 34.2092432,10.3070501 34.4185482,10.5024015 C34.6278533,10.6977529 34.7325042,10.9349617 34.7325042,11.2140351 L34.7325042,14.1861518 C35.6255391,12.9582289 36.7557694,11.9884634 38.123229,11.2768263 C39.4906886,10.5651891 40.9558019,10.2093759 42.5186129,10.2093759 C45.2814395,10.2093759 47.6256208,11.2000716 49.5512272,13.1814926 C51.4768336,15.1629137 52.4396224,17.5559322 52.4396224,20.3606198 C52.4396224,23.1653073 51.4768336,25.5722792 49.5512272,27.5816077 C47.6256208,29.5909361 45.2814395,30.5955852 42.5186129,30.5955852 C40.9558019,30.5955852 39.4906886,30.2327953 38.123229,29.5072044 C36.7557694,28.7816136 35.6255391,27.8048714 34.7325042,26.5769485 L34.7325042,38.2979723 C34.7325042,38.5770457 34.6278533,38.8142545 34.4185482,39.0096059 C34.2092432,39.2049573 33.9650576,39.3026315 33.6859842,39.3026315 C33.4069108,39.3026315 33.169702,39.2049573 32.9743506,39.0096059 C32.7789993,38.8142545 32.681325,38.5770457 32.681325,38.2979723 Z M34.7325042,20.0466638 L34.7325042,20.3815502 C34.7325042,22.6420446 35.4999445,24.5676222 37.0348482,26.1583405 C38.5697518,27.7490588 40.3976551,28.5583595 42.5186129,28.5862669 C44.6953854,28.5583595 46.5511956,27.7490588 48.0860993,26.1583405 C49.6210029,24.5676222 50.3884432,22.6420446 50.3884432,20.3815502 C50.3884432,18.1210557 49.6210029,16.2024549 48.0860993,14.6256902 C46.5511956,13.0489256 44.7232923,12.2605551 42.6023345,12.2605551 C40.4813767,12.2605551 38.6604502,13.0140419 37.1395002,14.5210382 C35.6185502,16.0280345 34.8162262,17.8698913 34.7325042,20.0466638 Z M56.1532742,22.3490077 L56.1532742,11.1721743 C56.1532742,10.8931009 56.2509484,10.6558921 56.4462998,10.4605407 C56.6416512,10.2651893 56.87886,10.1675151 57.1579334,10.1675151 C57.4370068,10.1675151 57.6742156,10.2651893 57.869567,10.4605407 C58.0649184,10.6558921 58.1625926,10.8931009 58.1625926,11.1721743 L58.1625926,22.3490077 C58.1625926,24.1071701 58.7765448,25.6001904 60.0044678,26.8281133 C61.2323907,28.0560362 62.7114575,28.6839419 64.4417125,28.7118493 C66.1998749,28.6839419 67.6998719,28.0560362 68.9417484,26.8281133 C70.183625,25.6001904 70.804554,24.1071701 70.804554,22.3490077 L70.804554,11.1721743 C70.804554,10.8931009 70.909205,10.6558921 71.11851,10.4605407 C71.3278151,10.2651893 71.5720006,10.1675151 71.851074,10.1675151 C72.1301474,10.1675151 72.3673562,10.2651893 72.5627076,10.4605407 C72.758059,10.6558921 72.8557332,10.8931009 72.8557332,11.1721743 L72.8557332,22.3490077 C72.8557332,24.6653169 72.0394558,26.6397315 70.4068764,28.2723109 C68.7742971,29.9048902 66.7998825,30.7211676 64.4835733,30.7211676 C62.1672642,30.7211676 60.1998263,29.9048902 58.5812006,28.2723109 C56.9625749,26.6397315 56.1532742,24.6653169 56.1532742,22.3490077 Z M77.197297,27.7909117 C76.7228722,27.3723016 76.6810119,26.9257908 77.0717146,26.4513661 C77.2391586,26.2281074 77.462414,26.1025262 77.7414874,26.0746189 C78.0205608,26.0467115 78.2717231,26.1304323 78.4949818,26.3257837 C80.6717542,27.916502 82.6531456,28.7118493 84.4392153,28.7118493 C86.225285,28.7118493 87.6345845,28.2932454 88.6671561,27.4560253 C89.6997276,26.7583418 90.2090289,25.9420644 90.1950752,25.0071685 C90.1811216,24.0722726 89.7206574,23.2420417 88.8136689,22.5164509 C87.9066803,21.7908601 86.4345903,21.2606286 84.3973545,20.9257405 L84.3136329,20.8838798 C82.1368605,20.493177 80.5880264,19.9629455 79.6670842,19.2931694 C78.1879952,18.4280419 77.4484618,17.2001374 77.4484618,15.609419 C77.4484618,14.0187007 78.1879952,12.6791685 79.6670842,11.5907823 C81.0066365,10.6698401 82.6810517,10.2093759 84.6903801,10.2093759 C85.4996929,10.2093759 86.3159704,10.3419338 87.1392369,10.6070535 C87.9625034,10.8721732 88.5904091,11.1233355 89.0229729,11.3605479 C89.4555366,11.5977603 90.0485587,11.9535735 90.8020568,12.4279983 C91.0253155,12.5954423 91.1648501,12.8186977 91.2206648,13.097771 C91.2764795,13.3768444 91.2346191,13.6280067 91.0950824,13.8512654 C90.9555457,14.0745242 90.7462438,14.2140588 90.4671704,14.2698734 C90.188097,14.3256881 89.9369348,14.2838277 89.713676,14.144291 C89.0159926,13.6698663 88.4927378,13.3280065 88.1438961,13.1187014 C87.7950543,12.9093964 87.285753,12.686141 86.6159769,12.4489287 C85.9462007,12.2117163 85.3043416,12.0931119 84.6903801,12.0931119 C83.0717544,12.0931119 81.8019895,12.4628786 80.8810474,13.202423 C79.9601052,13.9419675 79.499641,14.7163846 79.499641,15.5256974 C79.499641,16.3350103 79.8903379,17.0466367 80.6717434,17.6605982 C81.6485002,18.3303743 83.0438463,18.804792 84.8578233,19.0838654 L84.9415449,19.0838654 C86.755522,19.3629388 88.4159837,19.9210772 89.92298,20.7582974 C91.4578837,21.7629616 92.225324,23.1094705 92.225324,24.7978645 C92.225324,26.4862585 91.4648604,27.895558 89.9439104,29.0258052 C88.4229605,30.1560525 86.6997081,30.7211676 84.7741017,30.7211676 C82.1229045,30.6932603 79.5973282,29.7165181 77.197297,27.7909117 Z" id="Opus" fill="#333333"></path>
    </g>
</svg>