<svg xmlns="http://www.w3.org/2000/svg" xmlns:xlink="http://www.w3.org/1999/xlink" width="24" height="24" viewBox="0 0 24 24">
    <defs>
        <path id="a" d="M4.583 19.419l3.803-1.268a1 1 0 0 1 .767.056A7.382 7.382 0 0 0 12.5 19a7.502 7.502 0 0 0 6.708-4.15 7.38 7.38 0 0 0 .793-3.347l.001-.448c-.21-3.807-3.25-6.846-7.001-7.055h-.503a7.385 7.385 0 0 0-3.35.795 7.5 7.5 0 0 0-4.147 6.708 7.38 7.38 0 0 0 .792 3.346 1 1 0 0 1 .056.767L4.583 19.42zm17.419-7.92a9.376 9.376 0 0 1-1.006 4.248A9.5 9.5 0 0 1 12.504 21a9.38 9.38 0 0 1-3.868-.824L3.318 21.95a1 1 0 0 1-1.265-1.265l1.773-5.318A9.498 9.498 0 0 1 8.25 3.007 9.377 9.377 0 0 1 12.5 2l.556.002c4.825.266 8.677 4.118 8.945 8.998v.499z"/>
    </defs>
    <g fill="none" fill-rule="evenodd">
        <mask id="b" fill="#fff">
            <use xlink:href="#a"/>
        </mask>
        <use fill="#000" fill-rule="nonzero" xlink:href="#a"/>
        <g fill="#333" mask="url(#b)">
            <path d="M0 0h24v24H0z"/>
        </g>
    </g>
</svg>
