<svg xmlns="http://www.w3.org/2000/svg" xmlns:xlink="http://www.w3.org/1999/xlink" width="24" height="24" viewBox="0 0 24 24">
    <defs>
        <path id="a" d="M20.586 7H17a1 1 0 0 1 0-2h6a1 1 0 0 1 1 1v6a1 1 0 0 1-2 0V8.414l-7.793 7.793a1 1 0 0 1-1.414 0L8.5 11.914l-6.793 6.793a1 1 0 1 1-1.414-1.414l7.5-7.5a1 1 0 0 1 1.414 0l4.293 4.293L20.586 7z"/>
    </defs>
    <g fill="none" fill-rule="evenodd">
        <mask id="b" fill="#fff">
            <use xlink:href="#a"/>
        </mask>
        <use fill="#000" fill-rule="nonzero" xlink:href="#a"/>
        <g fill="#333" mask="url(#b)">
            <path d="M0 0h24v24H0z"/>
        </g>
    </g>
</svg>
