<svg xmlns="http://www.w3.org/2000/svg" xmlns:xlink="http://www.w3.org/1999/xlink" width="24" height="24" viewBox="0 0 24 24">
    <defs>
        <path id="a" d="M10.87 15.003H3.001a1 1 0 0 1-.768-1.64l10-12c.639-.767 1.884-.227 1.76.764l-.86 6.876h7.868a1 1 0 0 1 .768 1.64l-10 12c-.64.768-1.884.227-1.76-.764l.86-6.876zm-5.733-2h6.865a1 1 0 0 1 .992 1.124l-.577 4.616 6.45-7.74h-6.865a1 1 0 0 1-.992-1.124l.577-4.615-6.45 7.74z"/>
    </defs>
    <g fill="none" fill-rule="evenodd">
        <mask id="b" fill="#fff">
            <use xlink:href="#a"/>
        </mask>
        <use fill="#000" fill-rule="nonzero" xlink:href="#a"/>
        <g fill="#333" mask="url(#b)">
            <path d="M0 0h24v24H0z"/>
        </g>
    </g>
</svg>
